<?xml version="1.0" encoding="utf-8"?>
<!-- Generator: Adobe Illustrator 23.1.0, SVG Export Plug-In . SVG Version: 6.00 Build 0)  -->
<svg version="1.1" id="Layer_1" xmlns="http://www.w3.org/2000/svg" xmlns:xlink="http://www.w3.org/1999/xlink" x="0px" y="0px"
	 width="98.17px" height="80.75px" viewBox="0 0 98.17 80.75" enable-background="new 0 0 98.17 80.75" xml:space="preserve">
<path id="target" fill="#3B2699" d="M88.37,40.09l7.69-10.25c0.92-1.23,0.67-2.97-0.56-3.9c-0.48-0.36-1.07-0.56-1.67-0.56h-14.9
	c-0.88,0-1.7,0.41-2.23,1.11l-0.29,0.39C69.13,6.88,47-3.42,26.99,3.87S-3.32,33.28,3.97,53.29S33.39,83.6,53.39,76.31
	c10.7-3.9,19.13-12.33,23.02-23.02l0.29,0.39c0.53,0.7,1.35,1.11,2.23,1.11h14.9c1.54,0,2.78-1.25,2.78-2.78
	c0-0.6-0.2-1.19-0.56-1.67L88.37,40.09z M72.27,47.77c-4.24,17.72-22.04,28.64-39.76,24.4C14.79,67.93,3.87,50.13,8.11,32.41
	S30.15,3.77,47.87,8.01c12.08,2.89,21.51,12.32,24.4,24.4l-3,4l-0.67,0.89h-1.94C65.13,22.68,52.03,12.07,37.4,13.6
	c-14.63,1.54-25.24,14.64-23.7,29.27s14.64,25.24,29.27,23.7c12.51-1.31,22.39-11.2,23.7-23.7h1.93l0.67,0.89L72.27,47.77z
	 M54.62,37.31c-1.54-7.98-9.25-13.2-17.22-11.66S24.2,34.9,25.74,42.87s9.25,13.2,17.22,11.66c5.9-1.14,10.52-5.75,11.66-11.66h6.44
	c-1.54,11.53-12.13,19.63-23.66,18.1S17.76,48.84,19.3,37.31c1.54-11.53,12.13-19.63,23.66-18.1c9.43,1.26,16.84,8.67,18.1,18.1
	H54.62z M40.18,42.87h8.71c-1.54,4.81-6.68,7.46-11.49,5.92c-4.81-1.54-7.46-6.68-5.92-11.49c1.54-4.81,6.68-7.46,11.49-5.92
	c2.82,0.9,5.02,3.11,5.92,5.92h-8.71c-1.54,0-2.78,1.25-2.78,2.78C37.4,41.63,38.64,42.87,40.18,42.87z M82.67,41.76l5.6,7.47h-7.94
	l-6.86-9.14l6.86-9.14h7.95l-5.6,7.47C81.93,39.41,81.93,40.77,82.67,41.76z"/>
</svg>
